<?xml version="1.0" encoding="UTF-8"?>
<svg width="48px" height="48px" viewBox="0 0 48 48" version="1.1" xmlns="http://www.w3.org/2000/svg" xmlns:xlink="http://www.w3.org/1999/xlink">
    <title>Artboard Copy 41</title>
    <g id="Artboard-Copy-41" stroke="none" stroke-width="1" fill="none" fill-rule="evenodd">
        <g id="A.-Finance/c.-Money-&amp;-operations/AC370-savings-|-ðŸ”-savings,-ahorros,-piggy-bank,-hucha" fill="#CC0000">
            <path d="M37,4 C37.5522847,4 38,4.44771525 38,5 L38,5 L38,43 C38,43.5522847 37.5522847,44 37,44 L37,44 L11,44 C10.4477153,44 10,43.5522847 10,43 L10,43 L10,5 C10,4.44771525 10.4477153,4 11,4 L11,4 Z M36,6 L12,6 L12,42 L36,42 L36,6 Z M23.9648,23.0004 C24.4776358,23.0004 24.9003072,23.3864402 24.9580723,23.8837789 L24.9648,24.0004 L24.9650985,24.74252 C25.3370427,24.8228639 25.705537,24.9372635 26.0677464,25.0786825 C26.5105366,25.251563 26.8535211,25.4269652 27.0645279,25.5546547 C27.5370325,25.8405879 27.6882786,26.4554232 27.4023453,26.9279279 C27.1164121,27.4004325 26.5015768,27.5516786 26.0290721,27.2657453 C25.9095789,27.1934348 25.6659384,27.068837 25.3403536,26.9417175 C24.806928,26.7334498 24.2672477,26.6102 23.7708,26.6102 C22.8197173,26.6102 22.2168,27.0246655 22.2168,27.4882 C22.2168,28.0225875 22.6923325,28.3942407 24.2288142,29.0175887 L24.4449656,29.1041897 L24.622661,29.1744863 C27.0197749,30.1231527 27.9368,30.77247 27.9368,32.3922 C27.9368,34.0493126 26.7610463,35.0651951 24.9659715,35.3378195 L24.9648,36.0186 C24.9648,36.5708847 24.5170847,37.0186 23.9648,37.0186 C23.4519642,37.0186 23.0292928,36.6325598 22.9715277,36.1352211 L22.9648,36.0186 L22.9648119,35.3476449 C22.3451637,35.2619471 21.7944407,35.0939515 21.3133473,34.8618946 C20.8505935,34.638684 20.5303914,34.3986654 20.3430411,34.2044242 C19.9596317,33.8069123 19.971064,33.1738506 20.3685758,32.7904411 C20.7660877,32.4070317 21.3991494,32.418464 21.7825589,32.8159758 C21.8127086,32.8472346 21.9437565,32.945466 22.1822527,33.0605054 C22.6324139,33.2776419 23.2097307,33.4122 23.9328,33.4122 L23.914799,33.4114 L23.9648,33.4086 C23.978063,33.4086 23.9912657,33.4088582 24.0044033,33.4093699 C25.3482008,33.3982668 25.9368,33.0061576 25.9368,32.3922 C25.9368,32.0100861 25.5142592,31.692702 24.1054769,31.1217367 L23.8866923,31.0341503 L23.7086344,30.9637103 C21.2198637,29.9782092 20.2168,29.2432722 20.2168,27.4882 C20.2168,25.9781859 21.4086821,24.942772 22.9646852,24.6773674 L22.9648,24.0004 C22.9648,23.4481153 23.4125153,23.0004 23.9648,23.0004 Z M31,18 C31.5522847,18 32,18.4477153 32,19 C32,19.5522847 31.5522847,20 31,20 L31,20 L17,20 C16.4477153,20 16,19.5522847 16,19 C16,18.4477153 16.4477153,18 17,18 L17,18 Z M31,12 C31.5522847,12 32,12.4477153 32,13 C32,13.5522847 31.5522847,14 31,14 L31,14 L17,14 C16.4477153,14 16,13.5522847 16,13 C16,12.4477153 16.4477153,12 17,12 L17,12 Z" id="Icon"></path>
        </g>
    </g>
</svg>