<?xml version="1.0" encoding="UTF-8"?>
<svg width="48px" height="48px" viewBox="0 0 48 48" version="1.1" xmlns="http://www.w3.org/2000/svg" xmlns:xlink="http://www.w3.org/1999/xlink">
    <title>Artboard Copy 42</title>
    <g id="Artboard-Copy-42" stroke="none" stroke-width="1" fill="none" fill-rule="evenodd">
        <g id="A.-Finance/c.-Money-&amp;-operations/AC370-savings-|-ðŸ”-savings,-ahorros,-piggy-bank,-hucha" fill="#CC0000">
            <path d="M5.00535409,27.9836461 L15.0053541,27.9876576 C15.5574821,27.9878791 16.0049529,28.4355294 16.0049529,28.9876575 L16.0049529,29.986646 L21.5583339,29.9868234 C22.6511606,29.9868234 23.7017949,30.391997 24.5100305,31.1190282 L24.6794407,31.2797166 C25.0869342,31.6872102 25.6248397,31.9339718 26.1951608,31.9792492 L26.3863339,31.9868234 L32.9723339,31.9868234 C34.4690858,31.9868234 35.7086452,33.0817777 35.9352946,34.5139207 L39.2571589,32.9568555 C40.8281332,32.1537709 42.8339292,32.5604843 43.6310077,34.2127616 C44.3978103,35.8022795 43.934435,37.4685068 42.4183726,38.554277 L42.2387807,38.6769448 L33.7087981,43.0891555 C31.0613092,43.9973034 28.2917045,44.2778027 24.9601084,43.7081618 L24.5022751,43.6251931 L16.0049529,41.725646 L16.0049529,42.9872828 C16.0049529,43.5395675 15.5572377,43.9872828 15.0049529,43.9872828 L8.59532391,43.9872828 C6.05463113,43.9872828 4.00495295,41.9612573 4.00495295,39.4236864 L4.00495295,28.9836461 C4.00495295,28.4312047 4.45291272,27.9834246 5.00535409,27.9836461 Z M21.5583339,31.9868234 L16.0049529,31.986646 L16.0049529,39.676646 L24.9081257,41.6670487 C27.9088872,42.2407742 30.3652619,42.0580423 32.5916193,41.3635515 L32.9238871,41.2555702 L41.2303426,36.9527735 C41.9793333,36.4621002 42.1796718,35.8072985 41.8296601,35.0817534 C41.5911866,34.5874177 40.9158915,34.4226149 40.2662664,34.6928194 L40.1368207,34.7526916 L35.0754946,37.1264714 C34.579339,37.6142386 33.9141707,37.9307006 33.1755309,37.980057 L32.9723339,37.9868234 L26.9723339,37.9868234 C26.4200492,37.9868234 25.9723339,37.5391081 25.9723339,36.9868234 C25.9723339,36.4739876 26.3583741,36.0513162 26.8557128,35.9935511 L26.9723339,35.9868234 L32.9723339,35.9868234 C33.231705,35.9868234 33.4678039,35.8883472 33.6453818,35.7267397 C33.6819139,35.6718945 33.7264423,35.6217288 33.7762016,35.5761143 C33.9006207,35.4125443 33.9723339,35.2081138 33.9723339,34.9868234 C33.9723339,34.4737311 33.5867983,34.0512796 33.0890632,33.9935472 L32.9723339,33.9868234 L26.3863339,33.9868234 C25.2154482,33.9868234 24.0929976,33.5217007 23.2652271,32.6939302 C22.8577336,32.2864366 22.3198281,32.039675 21.7495071,31.9943976 L21.5583339,31.9868234 Z M6.00495295,29.9840473 L6.00495295,39.4236864 C6.00495295,40.8514582 7.15403767,41.9872828 8.59532391,41.9872828 L14.0049529,41.9872828 L14.0050449,40.5041323 C14.0047711,40.4931279 14.0046797,40.4820946 14.0047731,40.471036 L14.0049529,31.003646 L14.0049529,30.9868234 L14.0049981,30.9772247 L14.0049981,30.9772247 L14.0049529,29.9872565 L6.00495295,29.9840473 Z M35.695639,3.99659931 C38.1484282,3.99659931 40.2895419,5.64274423 40.8705169,7.94740372 L40.8705169,7.94740372 L42.9540173,14.7018399 C43.1524198,15.3450348 42.6715456,15.9965993 41.9984458,15.9965993 L41.9984458,15.9965993 L39.9881121,15.9965249 C39.9997633,16.0575874 40.0058616,16.1206198 40.0058616,16.1850765 L40.0058616,16.1850765 L40.0058616,24.9850765 C40.0058616,25.5373612 39.5581463,25.9850765 39.0058616,25.9850765 L39.0058616,25.9850765 L23.0058616,25.9850765 C22.4535768,25.9850765 22.0058616,25.5373612 22.0058616,24.9850765 L22.0058616,24.9850765 L22.0058616,16.1850765 C22.0058616,16.1206198 22.0119599,16.0575874 22.0236111,15.9965249 L19.9984458,15.9965993 C19.3253461,15.9965993 18.8444718,15.3450348 19.0428743,14.7018399 L19.0428743,14.7018399 L21.1124194,7.99717816 C21.7073497,5.64274423 23.8484635,3.99659931 26.3012526,3.99659931 L26.3012526,3.99659931 Z M38.0236111,15.9965249 L23.9881121,15.9965249 C23.9997633,16.0575874 24.0058616,16.1206198 24.0058616,16.1850765 L24.0058616,16.1850765 L24.0058616,23.9850765 L30.0049529,23.9845993 L30.0058616,20.9850765 C30.0058616,20.4722406 30.3919018,20.0495693 30.8892405,19.9918042 L31.0058616,19.9850765 C31.5581463,19.9850765 32.0058616,20.4327917 32.0058616,20.9850765 L32.0058616,20.9850765 L32.0049529,23.9845993 L38.0058616,23.9850765 L38.0058616,16.1850765 C38.0058616,16.1206198 38.0119599,16.0575874 38.0236111,15.9965249 Z M35.695639,5.99659931 L26.3012526,5.99659931 C24.759247,5.99659931 23.4207705,7.02565546 23.0375178,8.53692254 L23.0375178,8.53692254 L21.353404,13.9965993 L40.6437537,13.9965993 L38.9454185,8.4871481 C38.5761211,7.02565546 37.2376446,5.99659931 35.695639,5.99659931 L35.695639,5.99659931 Z" id="Icon"></path>
        </g>
    </g>
</svg>