<?xml version="1.0" encoding="UTF-8"?>
<svg width="48px" height="48px" viewBox="0 0 48 48" version="1.1" xmlns="http://www.w3.org/2000/svg" xmlns:xlink="http://www.w3.org/1999/xlink">
    <title>Artboard Copy 39</title>
    <defs>
        <path d="M37.3878105,3.99946299 C39.3088266,3.99946299 40.9533504,5.41857588 41.4015769,7.40086724 L43.9753568,18.77883 C44.1168498,19.4043309 43.6413046,19.999463 42.9999999,19.999463 L39.9995819,19.999463 L39.999809,25.9996612 C42.428811,27.824065 43.9999999,30.7288156 43.9999999,34.000537 C43.9999999,39.5233845 39.5228474,44.000537 33.9999999,44.000537 C29.8975796,44.000537 26.3721372,41.5302006 24.8300763,37.9959312 L24.7726404,37.999463 L24.7726404,37.999463 L21.0332497,37.9999947 C21.0222107,38.0003553 21.0111266,38.000537 20.9999999,38.000537 L20.9665819,37.998463 L14.0332497,37.9999947 C14.0222107,38.0003553 14.0111266,38.000537 13.9999999,38.000537 L13.9665819,37.998463 L10.8389977,37.999463 C9.25101847,37.999463 7.99999994,36.637262 7.99999994,34.997027 L7.99958192,19.999463 L4.99999994,19.999463 C4.35871062,19.999463 3.88316858,19.4043577 4.0246348,18.7788664 L6.59795689,7.4009527 C7.04620271,5.41857588 8.69072649,3.99946299 10.6117427,3.99946299 L37.3878105,3.99946299 Z M33.9999999,26.000537 C29.5817219,26.000537 25.9999999,29.582259 25.9999999,34.000537 C25.9999999,38.418815 29.5817219,42.000537 33.9999999,42.000537 C38.4182779,42.000537 41.9999999,38.418815 41.9999999,34.000537 C41.9999999,29.582259 38.4182779,26.000537 33.9999999,26.000537 Z M34.0067463,27.8463921 C34.5590311,27.8463921 35.0067463,28.2941073 35.0067463,28.8463921 L35.0081242,29.8537976 C35.1613234,29.8887688 35.3069765,29.9309044 35.4449876,29.9794171 C35.7376935,30.0823071 35.9535651,30.1973144 36.093689,30.2978974 C36.5423513,30.6199541 36.6449855,31.2447454 36.3229288,31.6934078 C36.0008721,32.1420701 35.3760808,32.2447043 34.9274185,31.9226476 C34.9369774,31.9295091 34.8889726,31.9039342 34.781744,31.866242 C34.5540068,31.7861893 34.2619773,31.7353866 33.8998292,31.7353866 C33.4363008,31.7353866 33.0940276,32.0059305 33.0940276,32.3388856 C33.0940276,32.3742478 33.2431527,32.5351601 33.6138144,32.7358707 C33.8397121,32.8581927 34.5505129,33.1583111 34.5539411,33.1600164 C34.474609,33.1205841 35.1770762,33.4177049 35.4799973,33.5854099 C36.3890555,34.0886883 36.9781489,34.7894099 36.9781489,35.7985008 C36.9781489,37.0789743 36.1979913,37.9335034 35.0073705,38.263503 L35.0067463,39.305268 C35.0067463,39.8575527 34.5590311,40.305268 34.0067463,40.305268 C33.4544616,40.305268 33.0067463,39.8575527 33.0067463,39.305268 L33.0065819,38.310463 L32.7993434,38.2588528 C32.638939,38.2142925 32.4760862,38.1616392 32.3116643,38.1023544 C32.009441,37.9933832 31.759224,37.8845208 31.5988122,37.8066886 C31.1019277,37.5655988 30.8945651,36.9673525 31.1356548,36.4704681 C31.3767446,35.9735836 31.9749909,35.766221 32.4718754,36.0073107 C32.5738662,36.0567969 32.7626058,36.1389122 32.9900445,36.2209187 C33.1657704,36.2842794 33.3337253,36.3354089 33.4842185,36.3698532 C33.6202536,36.4009884 33.7332069,36.4162735 33.8105975,36.4162735 C34.6610776,36.4162735 34.9781489,36.1908428 34.9781489,35.7985008 C34.9781489,35.6742386 34.8513628,35.5234277 34.5112923,35.3351558 C34.3213035,35.2299731 33.6754498,34.9567979 33.6634885,34.9508525 C33.747163,34.9924724 32.9925755,34.673866 32.6614846,34.4945827 C31.7090552,33.9788491 31.0940276,33.3152082 31.0940276,32.3388856 C31.0940276,31.1081611 31.9260762,30.1942073 33.0064853,29.8669444 L33.0067463,28.8463921 C33.0067463,28.2941073 33.4544616,27.8463921 34.0067463,27.8463921 Z M37.9995819,19.999463 L9.99958192,19.999463 L9.99999994,34.997027 C9.99999994,35.5689192 10.3954029,35.999463 10.8389977,35.999463 L12.9995819,35.998463 L12.9999999,27.000537 C12.9999999,26.4482523 13.4477152,26.000537 13.9999999,26.000537 L20.9999999,26.000537 C21.5522847,26.000537 21.9999999,26.4482523 21.9999999,27.000537 L21.9995819,35.998463 L24.1998294,35.9995181 C24.0687881,35.3536141 23.9999999,34.6851087 23.9999999,34.000537 C23.9999999,28.4776895 28.4771524,24.000537 33.9999999,24.000537 C35.4223691,24.000537 36.7753792,24.2974987 38.0004128,24.8328048 L37.9995819,19.999463 Z M19.9999999,28.000537 L14.9999999,28.000537 L14.9995819,35.998463 L19.9995819,35.998463 L19.9999999,28.000537 Z M37.3878105,5.99946299 L10.6117427,5.99946299 C9.65819964,5.99946299 8.79738119,6.74229113 8.54869826,7.8420968 L6.25142519,17.999463 L41.7485268,17.999463 L39.4508438,7.84204777 C39.2021719,6.74229113 38.3413535,5.99946299 37.3878105,5.99946299 Z" id="path-1"></path>
    </defs>
    <g id="Artboard-Copy-39" stroke="none" stroke-width="1" fill="none" fill-rule="evenodd">
        <g id="C.-People-&amp;-Nature/a.-People/CA180-team-together-|-ðŸ”-PEOPLE,-profile,-together,-perfiles,-juntos">
            <mask id="mask-2" fill="white">
                <use xlink:href="#path-1"></use>
            </mask>
            <use id="ic_real_estate_credit" fill="#CC0000" xlink:href="#path-1"></use>
        </g>
    </g>
</svg>